HIERARCHY
ROOT Hips
{
	OFFSET	0	0	0
	CHANNELS 6  Xposition Yposition Zposition Xrotation Yrotation Zrotation
	JOINT Spine
	{
		OFFSET	0	6.22639	1.25326
		CHANNELS 3  Xrotation Yrotation Zrotation
		JOINT Spine1
		{
			OFFSET	0	10.6877	-1.90851
			CHANNELS 3  Xrotation Yrotation Zrotation
			JOINT Spine2
			{
				OFFSET	0	8.10164	0.868374
				CHANNELS 3  Xrotation Yrotation Zrotation
				JOINT Spine3
				{
					OFFSET	0	9.69525	2.88186
					CHANNELS 3  Xrotation Yrotation Zrotation
					JOINT Spine4
					{
						OFFSET	0	14.352	-1.46956
						CHANNELS 3  Xrotation Yrotation Zrotation
						JOINT Neck
						{
							OFFSET	0	6.85157	-4.79991
							CHANNELS 3  Xrotation Yrotation Zrotation
							JOINT Head
							{
								OFFSET	0	8.2257	-2.46198
								CHANNELS 3  Xrotation Yrotation Zrotation
								End Site
								{
									OFFSET	0	17.1575	-0.830203
								}
							}
						}
					}
					JOINT LeftShoulder
					{
						OFFSET	-4.12239	17.4438	-8.22569
						CHANNELS 3  Xrotation Yrotation Zrotation
						JOINT LeftArm
						{
							OFFSET	-8.97544	-2.46198	3.15861
							CHANNELS 3  Xrotation Yrotation Zrotation
							JOINT LeftForeArm
							{
								OFFSET	-28.8645	-1.31743	2.06032
								CHANNELS 3  Xrotation Yrotation Zrotation
								JOINT LeftHand
								{
									OFFSET	-23.6955	-1.63749	1.69136
									CHANNELS 3  Xrotation Yrotation Zrotation
									End Site
									{
										OFFSET	-8.64768	-0.597604	0.617222
									}
								}
							}
						}
					}
					JOINT RightShoulder
					{
						OFFSET	4.12239	17.4438	-8.22569
						CHANNELS 3  Xrotation Yrotation Zrotation
						JOINT RightArm
						{
							OFFSET	8.97544	-2.46198	3.15861
							CHANNELS 3  Xrotation Yrotation Zrotation
							JOINT RightForeArm
							{
								OFFSET	28.8645	-1.31743	2.06032
								CHANNELS 3  Xrotation Yrotation Zrotation
								JOINT RightHand
								{
									OFFSET	23.6955	-1.63749	1.69136
									CHANNELS 3  Xrotation Yrotation Zrotation
									End Site
									{
										OFFSET	8.64768	-0.597604	0.617222
									}
								}
							}
						}
					}
				}
			}
		}
	}
	JOINT LeftUpLeg
	{
		OFFSET	-8.47813	-3.1132	-0.626629
		CHANNELS 3  Xrotation Yrotation Zrotation
		JOINT LeftLeg
		{
			OFFSET	-1.88069	-36.8514	-0.576069
			CHANNELS 3  Xrotation Yrotation Zrotation
			JOINT LeftFoot
			{
				OFFSET	-1.83866	-33.8924	2.91475
				CHANNELS 3  Xrotation Yrotation Zrotation
				JOINT LeftToeBase
				{
					OFFSET	0	-4.18359	-11.1116
					CHANNELS 3  Xrotation Yrotation Zrotation
					End Site
					{
						OFFSET	0	-1.67344	-6.69374
					}
				}
			}
		}
	}
	JOINT RightUpLeg
	{
		OFFSET	8.47813	-3.1132	-0.626629
		CHANNELS 3  Xrotation Yrotation Zrotation
		JOINT RightLeg
		{
			OFFSET	1.88069	-36.8514	-0.576069
			CHANNELS 3  Xrotation Yrotation Zrotation
			JOINT RightFoot
			{
				OFFSET	1.83866	-33.8924	2.91475
				CHANNELS 3  Xrotation Yrotation Zrotation
				JOINT RightToeBase
				{
					OFFSET	0	-4.18359	-11.1116
					CHANNELS 3  Xrotation Yrotation Zrotation
					End Site
					{
						OFFSET	0	-1.67344	-6.69374
					}
				}
			}
		}
	}
}
MOTION
Frames: 19
Frame Time: 0.020408
 0 -4.10085 3.34698 -0 0 -0 -0 0 -0 -0 0 -0 -0 0 -0 -0 0 -0 -0 0 -0 -0 0 -0 -0 0 -0 -0 0 -0 -0 0 -0 -0 0 -0 -0 0 -0 -0 0 -0 -0 0 -0 -0 0 -0 -0 0 -0 -0 0 -0 -0 0 -0 -0 0 -0 -0 0 -0 -0 0 -0 -0 0 -0 -0 0 -0 -0 0 -0
 -134.887 77.3736 -92.645 102.777 -71.7585 119.906 179.999 -179.989 175.248 173.636 -179.977 172.081 173.404 -179.932 172.081 175.082 -179.989 175.248 179.459 179.985 178.416 4.03649 9.03532 8.90809 1.35511 4.29541 3.02142 178.931 169.019 178.179 59.3286 -7.27667 73.8866 95.0023 -2.12174 136.97 -0 -4.69836 10.6021 173.286 152.26 -165.293 173.631 150.346 112.618 22.3152 15.0466 -4.16487 -0 0.922868 -13.9448 166.105 148.991 156.923 11.5643 3.78247 -0.0505699 40.2062 0.0437174 -1.82401 140.91 180 -180 176.16 138.444 157.293 172.209 -162.89 -179.603 4.24529 0.0280859 2.36352 8.76313 0 0
 -134.996 77.3533 -92.9013 102.742 -71.8699 119.917 179.999 -179.989 175.277 173.654 -179.979 172.128 173.432 -179.937 172.128 175.12 -179.989 175.277 179.405 179.984 178.426 3.86565 9.10986 8.94038 1.3036 4.45218 3.03742 179.106 168.939 178.479 58.6301 -7.43153 74.0464 95.0198 -2.24917 136.822 -0 -4.87707 10.5329 173.403 152.307 -165.551 173.587 150.726 113.075 22.3338 14.6203 -4.12578 -0 0.890326 -13.6132 166.291 148.9 157.229 11.5431 3.56325 -0.147483 40.2856 0.0449962 -1.47803 140.892 180 -180 175.965 138.48 157.743 172.714 -162.529 -179.55 4.1768 0.0349865 2.46555 8.73704 0 0
 -135.092 77.3448 -92.9993 104.099 -71.8346 121.427 179.999 -179.991 175.284 173.667 -179.983 172.139 173.452 -179.949 172.139 175.148 -179.991 175.284 179.362 179.982 178.428 3.75352 9.04489 8.79461 1.26414 4.56726 2.99787 179.249 168.602 178.728 57.9909 -7.45977 73.9662 95.0426 -2.36553 136.686 -0 -5.0717 10.5429 173.525 152.444 -165.824 173.716 151.093 113.494 22.3674 14.3038 -3.93469 -0 0.873516 -13.2812 166.593 148.828 157.242 11.5139 3.33372 -0.378272 40.2331 0.0408161 -1.15242 140.874 180 -180 176.279 138.581 157.814 173.086 -162.096 -179.672 4.09334 0.0555617 2.56546 8.71223 0 0
 -134.85 77.4248 -93.1457 104.909 -71.5472 122.24 180 -179.995 175.319 173.684 -179.991 172.198 173.464 -179.973 172.198 175.138 -179.995 175.319 179.414 179.984 178.44 3.91969 8.8966 8.48715 1.30471 4.62107 2.91132 179.485 167.929 179.136 57.2989 -7.36589 73.6526 95.1446 -2.47146 136.733 -0 -5.28687 10.8243 173.627 152.517 -166.051 173.657 151.47 113.806 22.3602 13.9258 -3.89111 -0 0.738141 -13.2321 166.01 148.45 157.502 11.6383 3.12012 -0.312453 40.1221 0.0432832 -0.870733 140.855 180 -180 175.607 138.57 158.203 173.583 -161.511 -179.732 3.50464 0.0595826 2.66115 8.69047 0 0
 -134.871 77.4624 -93.1044 107.28 -71.2058 124.837 179.999 -179.988 175.341 173.707 -179.976 172.236 173.487 -179.927 172.236 175.165 -179.988 175.341 179.399 179.984 178.447 3.8581 8.81278 8.43253 1.28428 4.57378 2.89017 179.865 166.862 179.778 56.7577 -6.83413 73.0182 95.2245 -2.62054 136.497 -0 -5.61466 11.0924 174.037 152.606 -166.961 173.887 151.934 114.258 22.3569 13.5832 -3.65033 -0 0.672715 -13.234 165.818 148.142 157.415 11.659 2.94782 -0.263913 40.0945 0.0461435 -0.61887 140.831 180 -180 175.692 138.883 158.023 174.088 -161.186 -179.532 3.01221 0.0646548 2.82236 8.66696 0 0
 -134.744 77.4797 -93.0686 108.382 -70.9944 126.096 179.999 -179.988 175.358 173.739 -179.976 172.263 173.533 -179.927 172.263 175.229 -179.988 175.358 179.31 179.981 178.453 3.59522 8.7605 8.28861 1.19903 4.76539 2.85347 0.0300475 14.261 0.0487482 56.5087 -6.72231 72.2013 95.3141 -2.8494 136.536 -0 -5.79032 11.346 174.447 152.965 -167.867 173.887 152.533 114.808 22.3524 13.1879 -3.53022 -0 0.669808 -13.2226 165.736 147.811 157.18 11.5972 2.88672 -0.180626 40.0972 0.0431245 -0.446406 140.806 180 -180 175.775 138.905 157.736 174.098 -160.971 -179.619 2.7913 0.0364401 2.93386 8.64371 0 0
 -134.64 77.5277 -93.0024 109.112 -70.8383 126.907 179.999 -179.988 175.367 173.763 -179.976 172.279 173.568 -179.928 172.279 175.275 -179.988 175.367 179.248 179.98 178.456 3.39452 8.85753 8.33165 1.13859 4.95592 2.87525 0.308699 14.8908 0.495908 56.3555 -6.6722 71.9069 95.4975 -3.04364 136.548 -0 -5.89192 11.6085 174.756 153.151 -168.55 173.834 152.991 115.229 22.3611 12.8747 -3.50428 -0 0.650433 -13.3104 165.703 147.582 156.988 11.5701 2.84685 -0.0458065 40.035 0.0335593 -0.29676 140.781 180 -180 175.833 138.89 157.542 174.078 -160.702 -179.611 2.58386 0.0315238 3.0159 8.62229 0 0
 -134.628 77.561 -92.9857 109.386 -70.7755 127.189 179.999 -179.993 175.385 173.785 -179.986 172.309 173.601 -179.957 172.309 175.315 -179.993 175.385 179.194 179.978 178.462 3.22481 8.96392 8.36516 1.08722 5.16171 2.89595 0.403844 14.9958 0.647681 56.2194 -6.83584 71.852 95.7979 -3.20032 136.564 -0 -5.96291 11.8159 174.972 153.078 -169.026 173.591 153.357 115.618 22.3912 12.6717 -3.43852 -0 0.626154 -13.539 165.736 147.467 156.84 11.5651 2.81329 0.0571515 40.0571 0.0142335 -0.138517 140.755 180 -180 175.851 138.98 157.465 174.033 -160.707 -179.629 2.43695 0.00510555 2.99182 8.60183 0 0
 -134.664 77.5501 -92.9448 109.586 -70.7371 127.417 180 -179.998 175.401 173.803 -179.995 172.335 173.635 -179.986 172.335 175.368 -179.998 175.401 179.104 179.976 178.467 2.95285 9.06642 8.41727 1.00511 5.38242 2.92154 0.514962 14.9186 0.826933 56.0169 -7.05644 71.9818 96.0557 -3.41323 136.484 -0 -5.99914 12.0088 175.164 152.981 -169.45 173.36 153.65 115.886 22.4639 12.628 -3.4063 -0 0.662198 -13.8273 165.819 147.415 156.754 11.5123 2.82513 0.0399736 40.0845 0.00624925 -0.00252163 140.73 180 -180 176.009 139.028 157.354 173.868 -160.967 -179.581 2.68706 -0.0137759 2.97129 8.5818 0 0
 -134.669 77.5201 -93.0427 109.886 -70.7321 127.734 0.000668498 0.00833801 -4.58387 173.828 179.983 172.36 173.668 179.95 172.36 175.392 179.992 175.416 179.092 179.976 178.472 2.90049 9.11842 8.4075 0.988417 5.50189 2.92578 0.553845 14.6965 0.892518 55.8401 -7.27309 72.3145 96.2529 -3.61752 135.973 -0 -6.02646 11.8967 175.182 152.754 -169.489 172.991 153.81 115.972 22.6036 12.8267 -3.50088 -0 0.717699 -14.2611 165.911 147.282 156.812 11.5262 2.89243 0.00553176 40.1686 -0.00592792 0.11282 140.704 180 -180 176.099 139.12 157.497 173.566 -161.367 -179.627 2.78572 -0.0373433 2.95923 8.56304 0 0
 -134.721 77.4971 -93.1153 109.682 -70.8592 127.505 0.00122247 0.0152364 -4.58723 173.856 179.97 172.355 173.708 179.909 172.355 175.434 179.985 175.413 179.045 179.975 178.471 2.75805 9.27039 8.3409 0.94151 5.89134 2.9299 0.725671 14.473 1.1736 55.6856 -7.58643 72.9336 96.4561 -3.72175 136.121 -0 -6.04576 11.7465 175.146 152.574 -169.409 172.515 153.921 116.064 22.79 13.2701 -3.65084 -0 0.769972 -14.9049 166.234 147.154 156.824 11.4802 2.96107 -0.0967031 40.2275 -0.0332048 0.250016 140.677 180 -180 176.314 139.14 157.652 173.287 -161.51 -179.647 2.84943 -0.0372519 2.92991 8.54333 0 0
 -134.754 77.4745 -93.1988 109.164 -71.0348 126.961 0.00118793 0.0148049 -4.58751 173.874 179.971 172.354 173.734 179.912 172.354 175.471 179.985 175.412 178.991 179.973 178.471 2.58952 9.28901 8.35611 0.890191 5.97444 2.93742 0.898036 14.2133 1.45837 55.7412 -7.8724 73.4763 96.6661 -3.87355 136.215 -0 -6.05025 11.6091 175.04 152.319 -169.178 171.97 153.894 116.062 22.9842 13.8196 -3.91281 -0 0.742391 -15.7596 166.552 146.897 156.557 11.5056 3.06219 -0.05059 40.1511 -0.0214303 0.345703 140.649 180 -180 176.488 139.152 157.766 173.016 -161.698 -179.745 2.96795 -0.0310504 2.8523 8.52272 0 0
 -134.802 77.4618 -93.2647 108.834 -71.1594 126.639 0.00108896 0.0135726 -4.58715 173.892 179.973 172.355 173.756 179.919 172.355 175.497 179.986 175.413 178.965 179.972 178.471 2.48887 9.25148 8.42618 0.861958 5.87244 2.94976 0.979853 13.9976 1.59663 55.5912 -8.10938 73.8676 96.8654 -4.00779 136.408 -0 -6.07629 11.4363 174.922 152.014 -168.918 171.538 153.839 116.092 23.1909 14.3473 -4.15249 -0 0.695711 -16.5801 166.82 146.608 156.489 11.5201 3.21573 -0.0666542 40.2015 -0.0153129 0.420483 140.623 180 -180 176.602 139.263 157.818 172.926 -162.023 -179.799 2.9847 -0.0465764 2.75292 8.50249 0 0
 -134.912 77.4496 -93.3034 109.154 -71.2342 127.004 0.00087219 0.0109033 -4.57352 173.904 179.978 172.377 173.775 179.935 172.377 175.528 179.989 175.426 178.917 179.971 178.476 2.32833 9.15692 8.51384 0.816306 5.67978 2.96001 0.976376 13.8161 1.59539 55.2212 -8.35946 74.1373 97.0737 -4.11583 136.656 -0 -6.08197 11.2564 174.839 151.875 -168.735 171.381 153.703 116.158 23.4533 14.9843 -4.49724 -0 0.763834 -17.3926 167.098 146.409 156.374 11.5311 3.31947 -0.0769843 40.2024 -0.00836554 0.542205 140.598 180 -180 176.841 139.365 157.787 172.859 -162.281 -179.771 2.91502 -0.0301853 2.6441 8.48285 0 0
 -134.949 77.45 -93.2882 109.61 -71.2357 127.509 0.00030615 0.00384165 -4.5564 173.909 179.992 172.406 173.785 179.977 172.406 175.559 179.996 175.444 178.856 179.97 178.482 2.12483 9.02236 8.72224 0.761919 5.2998 2.99236 0.885126 13.6838 1.44914 54.8541 -8.60046 74.0532 97.2793 -4.21972 136.781 -0 -6.0747 11.1648 174.716 151.881 -168.465 171.427 153.445 116.191 23.76 15.699 -4.96492 -0 0.886267 -18.1918 167.317 146.245 156.247 11.4886 3.39793 -0.090644 40.1939 -0.0113757 0.691488 140.574 180 -180 176.984 139.503 157.711 172.834 -162.458 -179.759 2.82842 -0.0259396 2.49706 8.46231 0 0
 -134.992 77.4538 -93.2732 110.418 -71.2136 128.371 0.000308861 0.00389314 -4.53605 173.897 179.992 172.44 173.792 179.977 172.44 175.61 179.996 175.464 178.715 179.966 178.488 1.71593 8.76061 8.8861 0.643627 4.84372 3.00173 0.837255 13.5634 1.37324 54.4088 -8.804 74.0757 97.3854 -4.3113 136.869 -0 -6.09098 10.6312 174.646 151.871 -168.309 171.547 153.089 116.059 24.0436 16.3286 -5.30977 -0 0.925201 -18.835 167.459 146.095 156.157 11.4988 3.5664 -0.0637078 40.1601 -0.00472476 0.87829 140.55 180 -180 177.09 139.746 157.725 172.795 -163.238 -179.768 2.75003 -0.0533064 2.37884 8.44101 0 0
 -135 77.4641 -93.2381 110.655 -71.2447 128.62 0.000384937 0.00486903 -4.5203 173.905 179.99 172.466 173.796 179.971 172.466 175.603 179.995 175.48 178.747 179.967 178.494 1.79465 8.71747 8.89537 0.668348 4.72772 2.99782 0.988605 13.6235 1.62014 54.025 -8.75189 74.1656 97.4179 -4.37321 137.243 -0 -6.23157 10.0305 174.575 151.859 -168.153 171.621 152.782 115.841 24.2485 16.6431 -5.44162 -0 0.901941 -19.2658 167.628 145.979 156.088 11.4554 3.78195 -0.0312421 40.149 -0.0150953 1.03464 140.528 180 -180 177.112 139.924 157.716 172.834 -163.788 -179.742 2.70505 -0.0595086 2.28391 8.42031 0 0
 -135.04 77.4558 -93.1625 111.165 -71.2895 129.14 0.00027676 0.00352331 -4.49142 173.912 179.993 172.514 173.807 179.979 172.514 175.623 179.996 175.509 178.712 179.966 178.503 1.69826 8.59531 8.81915 0.636778 4.64839 2.9677 1.01879 13.717 1.66726 53.9596 -8.74784 74.036 97.3864 -4.45125 137.442 -0 -6.43977 9.5032 174.536 151.808 -168.066 171.649 152.552 115.671 24.3922 16.7881 -5.49604 -0 0.875001 -19.5674 167.971 145.874 155.918 11.4574 4.04376 -0.0234318 40.1475 -0.0237205 1.15656 140.506 180 -180 177.258 140.039 157.653 172.807 -164.166 -179.713 2.80348 -0.0552429 2.20777 8.40149 0 0
